2.6Hz3min_grf.mot
version=1
nRows=17
nColumns 19
inDegrees=yes
endheader
time	1_ground_force_vx	1_ground_force_vy	1_ground_force_vz	1_ground_force_px	1_ground_force_py	1_ground_force_pz	1_ground_torque_x	1_ground_torque_y	1_ground_torque_z	2_ground_force_vx	2_ground_force_vy	2_ground_force_vz	2_ground_force_px	2_ground_force_py	2_ground_force_pz	2_ground_torque_x	2_ground_torque_y	2_ground_torque_z
            3.751500	            4.176408	          306.325907	          -11.215982	           -0.215502	            0.006377	           -0.440475	           -0.002002	           -0.146820	            0.005376	           -1.942265	          240.824627	           11.371787	           -0.210907	            0.005781	           -0.714266	            0.002869	           -0.355783	           -0.016800
            3.752000	            4.177213	          302.540101	          -11.186358	           -0.215455	            0.006375	           -0.439993	           -0.001286	           -0.093152	            0.003444	           -1.929637	          237.325801	           11.359303	           -0.211230	            0.005782	           -0.714722	            0.002771	           -0.340760	           -0.016310
            3.752500	            4.224984	          298.211768	          -10.746464	           -0.215550	            0.006373	           -0.439584	            0.000088	            0.006200	           -0.000223	           -1.302102	          232.172851	           11.059077	           -0.210841	            0.005780	           -0.713784	            0.002008	           -0.357997	           -0.017052
            3.753000	            4.409703	          292.082377	          -10.681488	           -0.215731	            0.006376	           -0.440358	           -0.000263	           -0.017418	            0.000637	           -1.383339	          228.675056	           10.671208	           -0.210940	            0.005781	           -0.714085	            0.001753	           -0.289790	           -0.013523
            3.753500	            4.548464	          285.953174	          -10.662254	           -0.215597	            0.006380	           -0.441238	           -0.000555	           -0.034886	            0.001301	           -1.038877	          224.073346	           10.420002	           -0.210830	            0.005779	           -0.713558	            0.001543	           -0.332830	           -0.015477
            3.754000	            4.366646	          281.805682	          -10.358586	           -0.215525	            0.006378	           -0.440676	           -0.003897	           -0.251495	            0.009244	           -0.794055	          221.128321	           10.268605	           -0.210815	            0.005781	           -0.714083	            0.000933	           -0.259870	           -0.012068
            3.754500	            4.459059	          276.578358	          -10.472941	           -0.215316	            0.006379	           -0.441012	           -0.004865	           -0.301760	            0.011426	           -0.778892	          216.893937	            9.971924	           -0.210833	            0.005778	           -0.713393	            0.000888	           -0.247178	           -0.011364
            3.755000	            4.872858	          272.431571	          -10.308319	           -0.215164	            0.006377	           -0.440501	           -0.003546	           -0.198227	            0.007501	           -0.675223	          214.132043	            9.962028	           -0.210826	            0.005780	           -0.713859	            0.000695	           -0.220528	           -0.010260
            3.755500	            4.690893	          268.464512	          -10.049734	           -0.215259	            0.006376	           -0.440183	           -0.002039	           -0.116688	            0.004368	           -0.424399	          209.529523	            9.851646	           -0.211259	            0.005777	           -0.713290	            0.000401	           -0.198021	           -0.009311
            3.756000	            4.646427	          263.416277	           -9.887840	           -0.215339	            0.006376	           -0.440276	           -0.001310	           -0.074288	            0.002789	           -0.504204	          205.662549	            9.697103	           -0.211055	            0.005777	           -0.713127	            0.000391	           -0.159559	           -0.007523
            3.756500	            4.463713	          259.810928	           -9.902844	           -0.215630	            0.006372	           -0.439308	           -0.002197	           -0.127903	            0.004875	           -0.300291	          201.060362	            9.445956	           -0.211228	            0.005774	           -0.712609	            0.000226	           -0.151042	           -0.007096
            3.757000	            4.785943	          254.402400	           -9.789261	           -0.215279	            0.006376	           -0.440254	           -0.003147	           -0.167259	            0.006436	           -0.055346	          198.114332	            9.576128	           -0.210711	            0.005779	           -0.713371	            0.000058	           -0.209157	           -0.010110
            3.757500	            4.603297	          249.175053	           -9.902934	           -0.215189	            0.006381	           -0.441306	           -0.006409	           -0.346909	            0.013787	           -0.136480	          194.615670	            9.422900	           -0.211011	            0.005776	           -0.712848	            0.000116	           -0.166029	           -0.008039
            3.758000	            4.971301	          245.388562	           -9.690797	           -0.215522	            0.006377	           -0.440464	           -0.006134	           -0.302784	            0.011957	            0.015307	          191.486166	            9.270885	           -0.210872	            0.005777	           -0.713129	           -0.000009	           -0.118448	           -0.005735
            3.758500	            4.743152	          241.422083	           -9.569665	           -0.215111	            0.006376	           -0.440220	           -0.005936	           -0.302116	            0.011975	            0.167655	          188.173358	            8.883574	           -0.211808	            0.005774	           -0.713101	           -0.000067	           -0.075516	           -0.003565
            3.759000	            4.835838	          237.816197	           -9.447785	           -0.214788	            0.006374	           -0.439675	           -0.003238	           -0.159214	            0.006325	            0.178974	          185.042646	            8.919332	           -0.211553	            0.005775	           -0.713194	           -0.000116	           -0.119628	           -0.005766
            3.759500	            5.112255	          233.488891	           -9.237739	           -0.214786	            0.006374	           -0.439835	           -0.002667	           -0.121821	            0.004820	            0.473907	          181.177558	            8.623845	           -0.210795	            0.005776	           -0.712594	           -0.000353	           -0.135051	           -0.006428
